{
  "header": {
    "PPQ": 192,
    "bpm": 90.00009000009,
    "timeSignature": [
      6,
      8
    ],
    "name": "Greensleeves"
  },
  "tempo": [
    {
      "absoluteTime": 0,
      "seconds": 0,
      "bpm": 90.00009000009
    },
    {
      "absoluteTime": 9216,
      "seconds": 31.999968,
      "bpm": 90.00009000009
    }
  ],
  "timeSignature": [
    {
      "absoluteTime": 0,
      "seconds": 0,
      "numerator": 6,
      "denominator": 3,
      "click": 24,
      "notesQ": 8
    }
  ],
  "startTime": 0,
  "duration": 65.33326800000009,
  "tracks": [
    {
      "startTime": 0,
      "duration": 0,
      "length": 0,
      "notes": [],
      "controlChanges": {},
      "id": 0
    },
    {
      "startTime": 0,
      "duration": 0,
      "length": 0,
      "notes": [],
      "controlChanges": {},
      "id": 1,
      "name": "Greensleeves"
    },
    {
      "startTime": 0,
      "duration": 65.33326800000009,
      "length": 144,
      "notes": [
        {
          "name": "D5",
          "midi": 74,
          "time": 0,
          "velocity": 0.5905511811023622,
          "duration": 0.333333
        },
        {
          "name": "F5",
          "midi": 77,
          "time": 0.333333,
          "velocity": 0.5905511811023622,
          "duration": 0.666666
        },
        {
          "name": "G5",
          "midi": 79,
          "time": 0.999999,
          "velocity": 0.5905511811023622,
          "duration": 0.333333
        },
        {
          "name": "A5",
          "midi": 81,
          "time": 1.333332,
          "velocity": 0.5905511811023622,
          "duration": 0.49999949999999993
        },
        {
          "name": "A#5",
          "midi": 82,
          "time": 1.8333315,
          "velocity": 0.5905511811023622,
          "duration": 0.16666650000000005
        },
        {
          "name": "A5",
          "midi": 81,
          "time": 1.999998,
          "velocity": 0.5905511811023622,
          "duration": 0.3333329999999999
        },
        {
          "name": "G5",
          "midi": 79,
          "time": 2.333331,
          "velocity": 0.5905511811023622,
          "duration": 0.6666659999999998
        },
        {
          "name": "E5",
          "midi": 76,
          "time": 2.9999969999999996,
          "velocity": 0.5905511811023622,
          "duration": 0.3333330000000001
        },
        {
          "name": "C5",
          "midi": 72,
          "time": 3.3333299999999997,
          "velocity": 0.5905511811023622,
          "duration": 0.49999949999999993
        },
        {
          "name": "D5",
          "midi": 74,
          "time": 3.8333294999999996,
          "velocity": 0.5905511811023622,
          "duration": 0.16666649999999983
        },
        {
          "name": "E5",
          "midi": 76,
          "time": 3.9999959999999994,
          "velocity": 0.5905511811023622,
          "duration": 0.33333299999999966
        },
        {
          "name": "F5",
          "midi": 77,
          "time": 4.333328999999999,
          "velocity": 0.5905511811023622,
          "duration": 0.6666660000000002
        },
        {
          "name": "D5",
          "midi": 74,
          "time": 4.999994999999999,
          "velocity": 0.5905511811023622,
          "duration": 0.33333299999999966
        },
        {
          "name": "D5",
          "midi": 74,
          "time": 5.333327999999999,
          "velocity": 0.5905511811023622,
          "duration": 0.4999995000000004
        },
        {
          "name": "C#5",
          "midi": 73,
          "time": 5.833327499999999,
          "velocity": 0.5905511811023622,
          "duration": 0.16666649999999983
        },
        {
          "name": "D5",
          "midi": 74,
          "time": 5.999993999999999,
          "velocity": 0.5905511811023622,
          "duration": 0.33333299999999966
        },
        {
          "name": "E5",
          "midi": 76,
          "time": 6.333326999999999,
          "velocity": 0.5905511811023622,
          "duration": 0.6666660000000002
        },
        {
          "name": "C#5",
          "midi": 73,
          "time": 6.999992999999999,
          "velocity": 0.5905511811023622,
          "duration": 0.33333299999999966
        },
        {
          "name": "A4",
          "midi": 69,
          "time": 7.333325999999999,
          "velocity": 0.5905511811023622,
          "duration": 0.6666660000000002
        },
        {
          "name": "D5",
          "midi": 74,
          "time": 7.999991999999999,
          "velocity": 0.5905511811023622,
          "duration": 0.33333299999999966
        },
        {
          "name": "F5",
          "midi": 77,
          "time": 8.333324999999999,
          "velocity": 0.5905511811023622,
          "duration": 0.6666659999999993
        },
        {
          "name": "G5",
          "midi": 79,
          "time": 8.999990999999998,
          "velocity": 0.5905511811023622,
          "duration": 0.33333299999999966
        },
        {
          "name": "A5",
          "midi": 81,
          "time": 9.333323999999998,
          "velocity": 0.5905511811023622,
          "duration": 0.4999994999999995
        },
        {
          "name": "A#5",
          "midi": 82,
          "time": 9.833323499999997,
          "velocity": 0.5905511811023622,
          "duration": 0.16666649999999983
        },
        {
          "name": "A5",
          "midi": 81,
          "time": 9.999989999999997,
          "velocity": 0.5905511811023622,
          "duration": 0.33333299999999966
        },
        {
          "name": "G5",
          "midi": 79,
          "time": 10.333322999999996,
          "velocity": 0.5905511811023622,
          "duration": 0.6666659999999993
        },
        {
          "name": "E5",
          "midi": 76,
          "time": 10.999988999999996,
          "velocity": 0.5905511811023622,
          "duration": 0.33333299999999966
        },
        {
          "name": "C5",
          "midi": 72,
          "time": 11.333321999999995,
          "velocity": 0.5905511811023622,
          "duration": 0.4999994999999995
        },
        {
          "name": "D5",
          "midi": 74,
          "time": 11.833321499999995,
          "velocity": 0.5905511811023622,
          "duration": 0.16666649999999983
        },
        {
          "name": "E5",
          "midi": 76,
          "time": 11.999987999999995,
          "velocity": 0.5905511811023622,
          "duration": 0.33333299999999966
        },
        {
          "name": "F5",
          "midi": 77,
          "time": 12.333320999999994,
          "velocity": 0.5905511811023622,
          "duration": 0.4999994999999995
        },
        {
          "name": "E5",
          "midi": 76,
          "time": 12.833320499999994,
          "velocity": 0.5905511811023622,
          "duration": 0.16666649999999983
        },
        {
          "name": "D5",
          "midi": 74,
          "time": 12.999986999999994,
          "velocity": 0.5905511811023622,
          "duration": 0.33333299999999966
        },
        {
          "name": "C#5",
          "midi": 73,
          "time": 13.333319999999993,
          "velocity": 0.5905511811023622,
          "duration": 0.4999994999999995
        },
        {
          "name": "B4",
          "midi": 71,
          "time": 13.833319499999993,
          "velocity": 0.5905511811023622,
          "duration": 0.16666649999999983
        },
        {
          "name": "C#5",
          "midi": 73,
          "time": 13.999985999999993,
          "velocity": 0.5905511811023622,
          "duration": 0.33333299999999966
        },
        {
          "name": "D5",
          "midi": 74,
          "time": 14.333318999999992,
          "velocity": 0.5905511811023622,
          "duration": 0.9999990000000007
        },
        {
          "name": "D5",
          "midi": 74,
          "time": 15.333317999999993,
          "velocity": 0.5905511811023622,
          "duration": 0.9999990000000007
        },
        {
          "name": "C6",
          "midi": 84,
          "time": 16.333316999999994,
          "velocity": 0.5905511811023622,
          "duration": 0.999998999999999
        },
        {
          "name": "C6",
          "midi": 84,
          "time": 17.333315999999993,
          "velocity": 0.5905511811023622,
          "duration": 0.49999950000000126
        },
        {
          "name": "B5",
          "midi": 83,
          "time": 17.833315499999994,
          "velocity": 0.5905511811023622,
          "duration": 0.1666665000000016
        },
        {
          "name": "A5",
          "midi": 81,
          "time": 17.999981999999996,
          "velocity": 0.5905511811023622,
          "duration": 0.33333299999999966
        },
        {
          "name": "G5",
          "midi": 79,
          "time": 18.333314999999995,
          "velocity": 0.5905511811023622,
          "duration": 0.6666659999999993
        },
        {
          "name": "E5",
          "midi": 76,
          "time": 18.999980999999995,
          "velocity": 0.5905511811023622,
          "duration": 0.33333299999999966
        },
        {
          "name": "C5",
          "midi": 72,
          "time": 19.333313999999994,
          "velocity": 0.5905511811023622,
          "duration": 0.49999950000000126
        },
        {
          "name": "D5",
          "midi": 74,
          "time": 19.833313499999996,
          "velocity": 0.5905511811023622,
          "duration": 0.1666665000000016
        },
        {
          "name": "E5",
          "midi": 76,
          "time": 19.999979999999997,
          "velocity": 0.5905511811023622,
          "duration": 0.33333299999999966
        },
        {
          "name": "F5",
          "midi": 77,
          "time": 20.333312999999997,
          "velocity": 0.5905511811023622,
          "duration": 0.6666659999999993
        },
        {
          "name": "D5",
          "midi": 74,
          "time": 20.999978999999996,
          "velocity": 0.5905511811023622,
          "duration": 0.33333299999999966
        },
        {
          "name": "D5",
          "midi": 74,
          "time": 21.333311999999996,
          "velocity": 0.5905511811023622,
          "duration": 0.49999950000000126
        },
        {
          "name": "C#5",
          "midi": 73,
          "time": 21.833311499999997,
          "velocity": 0.5905511811023622,
          "duration": 0.1666665000000016
        },
        {
          "name": "D5",
          "midi": 74,
          "time": 21.999978,
          "velocity": 0.5905511811023622,
          "duration": 0.33333299999999966
        },
        {
          "name": "E5",
          "midi": 76,
          "time": 22.333311,
          "velocity": 0.5905511811023622,
          "duration": 0.6666659999999993
        },
        {
          "name": "C#5",
          "midi": 73,
          "time": 22.999976999999998,
          "velocity": 0.5905511811023622,
          "duration": 0.33333299999999966
        },
        {
          "name": "A4",
          "midi": 69,
          "time": 23.333309999999997,
          "velocity": 0.5905511811023622,
          "duration": 0.999998999999999
        },
        {
          "name": "C6",
          "midi": 84,
          "time": 24.333308999999996,
          "velocity": 0.5905511811023622,
          "duration": 0.999998999999999
        },
        {
          "name": "C6",
          "midi": 84,
          "time": 25.333307999999995,
          "velocity": 0.5905511811023622,
          "duration": 0.49999950000000126
        },
        {
          "name": "B5",
          "midi": 83,
          "time": 25.833307499999997,
          "velocity": 0.5905511811023622,
          "duration": 0.1666665000000016
        },
        {
          "name": "A5",
          "midi": 81,
          "time": 25.999973999999998,
          "velocity": 0.5905511811023622,
          "duration": 0.33333299999999966
        },
        {
          "name": "G5",
          "midi": 79,
          "time": 26.333306999999998,
          "velocity": 0.5905511811023622,
          "duration": 0.6666659999999993
        },
        {
          "name": "E5",
          "midi": 76,
          "time": 26.999972999999997,
          "velocity": 0.5905511811023622,
          "duration": 0.33333299999999966
        },
        {
          "name": "C5",
          "midi": 72,
          "time": 27.333305999999997,
          "velocity": 0.5905511811023622,
          "duration": 0.49999950000000126
        },
        {
          "name": "D5",
          "midi": 74,
          "time": 27.833305499999998,
          "velocity": 0.5905511811023622,
          "duration": 0.1666665000000016
        },
        {
          "name": "E5",
          "midi": 76,
          "time": 27.999972,
          "velocity": 0.5905511811023622,
          "duration": 0.33333299999999966
        },
        {
          "name": "F5",
          "midi": 77,
          "time": 28.333305,
          "velocity": 0.5905511811023622,
          "duration": 0.49999950000000126
        },
        {
          "name": "E5",
          "midi": 76,
          "time": 28.8333045,
          "velocity": 0.5905511811023622,
          "duration": 0.1666665000000016
        },
        {
          "name": "D5",
          "midi": 74,
          "time": 28.999971000000002,
          "velocity": 0.5905511811023622,
          "duration": 0.33333299999999966
        },
        {
          "name": "C#5",
          "midi": 73,
          "time": 29.333304000000002,
          "velocity": 0.5905511811023622,
          "duration": 0.49999950000000126
        },
        {
          "name": "A#4",
          "midi": 70,
          "time": 29.833303500000003,
          "velocity": 0.5905511811023622,
          "duration": 0.1666665000000016
        },
        {
          "name": "C#5",
          "midi": 73,
          "time": 29.999970000000005,
          "velocity": 0.5905511811023622,
          "duration": 0.33333299999999966
        },
        {
          "name": "D5",
          "midi": 74,
          "time": 30.333303000000004,
          "velocity": 0.5905511811023622,
          "duration": 0.999998999999999
        },
        {
          "name": "D5",
          "midi": 74,
          "time": 31.333302000000003,
          "velocity": 0.5905511811023622,
          "duration": 0.6666659999999993
        },
        {
          "name": "D5",
          "midi": 74,
          "time": 31.999968000000003,
          "velocity": 0.5905511811023622,
          "duration": 0.3333330000000032
        },
        {
          "name": "F5",
          "midi": 77,
          "time": 32.333301000000006,
          "velocity": 0.5905511811023622,
          "duration": 0.6666659999999993
        },
        {
          "name": "G5",
          "midi": 79,
          "time": 32.999967000000005,
          "velocity": 0.5905511811023622,
          "duration": 0.3333330000000032
        },
        {
          "name": "A5",
          "midi": 81,
          "time": 33.33330000000001,
          "velocity": 0.5905511811023622,
          "duration": 0.49999950000000126
        },
        {
          "name": "A#5",
          "midi": 82,
          "time": 33.83329950000001,
          "velocity": 0.5905511811023622,
          "duration": 0.16666649999999805
        },
        {
          "name": "A5",
          "midi": 81,
          "time": 33.99996600000001,
          "velocity": 0.5905511811023622,
          "duration": 0.3333330000000032
        },
        {
          "name": "G5",
          "midi": 79,
          "time": 34.33329900000001,
          "velocity": 0.5905511811023622,
          "duration": 0.6666659999999993
        },
        {
          "name": "E5",
          "midi": 76,
          "time": 34.99996500000001,
          "velocity": 0.5905511811023622,
          "duration": 0.3333330000000032
        },
        {
          "name": "C5",
          "midi": 72,
          "time": 35.33329800000001,
          "velocity": 0.5905511811023622,
          "duration": 0.49999950000000126
        },
        {
          "name": "D5",
          "midi": 74,
          "time": 35.833297500000015,
          "velocity": 0.5905511811023622,
          "duration": 0.16666649999999805
        },
        {
          "name": "E5",
          "midi": 76,
          "time": 35.99996400000001,
          "velocity": 0.5905511811023622,
          "duration": 0.3333330000000032
        },
        {
          "name": "F5",
          "midi": 77,
          "time": 36.333297000000016,
          "velocity": 0.5905511811023622,
          "duration": 0.6666659999999993
        },
        {
          "name": "D5",
          "midi": 74,
          "time": 36.999963000000015,
          "velocity": 0.5905511811023622,
          "duration": 0.3333330000000032
        },
        {
          "name": "D5",
          "midi": 74,
          "time": 37.33329600000002,
          "velocity": 0.5905511811023622,
          "duration": 0.49999950000000126
        },
        {
          "name": "C#5",
          "midi": 73,
          "time": 37.83329550000002,
          "velocity": 0.5905511811023622,
          "duration": 0.16666649999999805
        },
        {
          "name": "D5",
          "midi": 74,
          "time": 37.99996200000002,
          "velocity": 0.5905511811023622,
          "duration": 0.3333330000000032
        },
        {
          "name": "E5",
          "midi": 76,
          "time": 38.33329500000002,
          "velocity": 0.5905511811023622,
          "duration": 0.6666659999999993
        },
        {
          "name": "C#5",
          "midi": 73,
          "time": 38.99996100000002,
          "velocity": 0.5905511811023622,
          "duration": 0.3333330000000032
        },
        {
          "name": "A4",
          "midi": 69,
          "time": 39.33329400000002,
          "velocity": 0.5905511811023622,
          "duration": 0.6666659999999993
        },
        {
          "name": "D5",
          "midi": 74,
          "time": 39.99996000000002,
          "velocity": 0.5905511811023622,
          "duration": 0.3333330000000032
        },
        {
          "name": "F5",
          "midi": 77,
          "time": 40.333293000000026,
          "velocity": 0.5905511811023622,
          "duration": 0.6666659999999993
        },
        {
          "name": "G5",
          "midi": 79,
          "time": 40.999959000000025,
          "velocity": 0.5905511811023622,
          "duration": 0.3333330000000032
        },
        {
          "name": "A5",
          "midi": 81,
          "time": 41.33329200000003,
          "velocity": 0.5905511811023622,
          "duration": 0.49999950000000126
        },
        {
          "name": "A#5",
          "midi": 82,
          "time": 41.83329150000003,
          "velocity": 0.5905511811023622,
          "duration": 0.16666649999999805
        },
        {
          "name": "A5",
          "midi": 81,
          "time": 41.99995800000003,
          "velocity": 0.5905511811023622,
          "duration": 0.3333330000000032
        },
        {
          "name": "G5",
          "midi": 79,
          "time": 42.33329100000003,
          "velocity": 0.5905511811023622,
          "duration": 0.6666659999999993
        },
        {
          "name": "E5",
          "midi": 76,
          "time": 42.99995700000003,
          "velocity": 0.5905511811023622,
          "duration": 0.3333330000000032
        },
        {
          "name": "C5",
          "midi": 72,
          "time": 43.333290000000034,
          "velocity": 0.5905511811023622,
          "duration": 0.49999950000000126
        },
        {
          "name": "D5",
          "midi": 74,
          "time": 43.833289500000035,
          "velocity": 0.5905511811023622,
          "duration": 0.16666649999999805
        },
        {
          "name": "E5",
          "midi": 76,
          "time": 43.99995600000003,
          "velocity": 0.5905511811023622,
          "duration": 0.3333330000000032
        },
        {
          "name": "F5",
          "midi": 77,
          "time": 44.333289000000036,
          "velocity": 0.5905511811023622,
          "duration": 0.49999950000000126
        },
        {
          "name": "E5",
          "midi": 76,
          "time": 44.83328850000004,
          "velocity": 0.5905511811023622,
          "duration": 0.16666649999999805
        },
        {
          "name": "D5",
          "midi": 74,
          "time": 44.999955000000035,
          "velocity": 0.5905511811023622,
          "duration": 0.3333330000000032
        },
        {
          "name": "C#5",
          "midi": 73,
          "time": 45.33328800000004,
          "velocity": 0.5905511811023622,
          "duration": 0.49999950000000126
        },
        {
          "name": "B4",
          "midi": 71,
          "time": 45.83328750000004,
          "velocity": 0.5905511811023622,
          "duration": 0.16666649999999805
        },
        {
          "name": "C#5",
          "midi": 73,
          "time": 45.99995400000004,
          "velocity": 0.5905511811023622,
          "duration": 0.3333330000000032
        },
        {
          "name": "D5",
          "midi": 74,
          "time": 46.33328700000004,
          "velocity": 0.5905511811023622,
          "duration": 0.9999990000000025
        },
        {
          "name": "D5",
          "midi": 74,
          "time": 47.333286000000044,
          "velocity": 0.5905511811023622,
          "duration": 0.9999990000000025
        },
        {
          "name": "C6",
          "midi": 84,
          "time": 48.333285000000046,
          "velocity": 0.5905511811023622,
          "duration": 0.9999990000000025
        },
        {
          "name": "C6",
          "midi": 84,
          "time": 49.33328400000005,
          "velocity": 0.5905511811023622,
          "duration": 0.49999950000000126
        },
        {
          "name": "B5",
          "midi": 83,
          "time": 49.83328350000005,
          "velocity": 0.5905511811023622,
          "duration": 0.16666649999999805
        },
        {
          "name": "A5",
          "midi": 81,
          "time": 49.99995000000005,
          "velocity": 0.5905511811023622,
          "duration": 0.3333330000000032
        },
        {
          "name": "G5",
          "midi": 79,
          "time": 50.33328300000005,
          "velocity": 0.5905511811023622,
          "duration": 0.6666659999999993
        },
        {
          "name": "E5",
          "midi": 76,
          "time": 50.99994900000005,
          "velocity": 0.5905511811023622,
          "duration": 0.3333330000000032
        },
        {
          "name": "C5",
          "midi": 72,
          "time": 51.333282000000054,
          "velocity": 0.5905511811023622,
          "duration": 0.49999950000000126
        },
        {
          "name": "D5",
          "midi": 74,
          "time": 51.833281500000055,
          "velocity": 0.5905511811023622,
          "duration": 0.16666649999999805
        },
        {
          "name": "E5",
          "midi": 76,
          "time": 51.99994800000005,
          "velocity": 0.5905511811023622,
          "duration": 0.3333330000000032
        },
        {
          "name": "F5",
          "midi": 77,
          "time": 52.333281000000056,
          "velocity": 0.5905511811023622,
          "duration": 0.6666659999999993
        },
        {
          "name": "D5",
          "midi": 74,
          "time": 52.999947000000056,
          "velocity": 0.5905511811023622,
          "duration": 0.3333330000000032
        },
        {
          "name": "D5",
          "midi": 74,
          "time": 53.33328000000006,
          "velocity": 0.5905511811023622,
          "duration": 0.49999950000000126
        },
        {
          "name": "C#5",
          "midi": 73,
          "time": 53.83327950000006,
          "velocity": 0.5905511811023622,
          "duration": 0.16666649999999805
        },
        {
          "name": "D5",
          "midi": 74,
          "time": 53.99994600000006,
          "velocity": 0.5905511811023622,
          "duration": 0.3333330000000032
        },
        {
          "name": "E5",
          "midi": 76,
          "time": 54.33327900000006,
          "velocity": 0.5905511811023622,
          "duration": 0.6666659999999993
        },
        {
          "name": "C#5",
          "midi": 73,
          "time": 54.99994500000006,
          "velocity": 0.5905511811023622,
          "duration": 0.3333330000000032
        },
        {
          "name": "A4",
          "midi": 69,
          "time": 55.333278000000064,
          "velocity": 0.5905511811023622,
          "duration": 0.9999990000000025
        },
        {
          "name": "C6",
          "midi": 84,
          "time": 56.333277000000066,
          "velocity": 0.5905511811023622,
          "duration": 0.9999990000000025
        },
        {
          "name": "C6",
          "midi": 84,
          "time": 57.33327600000007,
          "velocity": 0.5905511811023622,
          "duration": 0.49999950000000126
        },
        {
          "name": "B5",
          "midi": 83,
          "time": 57.83327550000007,
          "velocity": 0.5905511811023622,
          "duration": 0.16666649999999805
        },
        {
          "name": "A5",
          "midi": 81,
          "time": 57.99994200000007,
          "velocity": 0.5905511811023622,
          "duration": 0.3333330000000032
        },
        {
          "name": "G5",
          "midi": 79,
          "time": 58.33327500000007,
          "velocity": 0.5905511811023622,
          "duration": 0.6666659999999993
        },
        {
          "name": "E5",
          "midi": 76,
          "time": 58.99994100000007,
          "velocity": 0.5905511811023622,
          "duration": 0.3333330000000032
        },
        {
          "name": "C5",
          "midi": 72,
          "time": 59.333274000000074,
          "velocity": 0.5905511811023622,
          "duration": 0.49999950000000126
        },
        {
          "name": "D5",
          "midi": 74,
          "time": 59.833273500000075,
          "velocity": 0.5905511811023622,
          "duration": 0.16666649999999805
        },
        {
          "name": "E5",
          "midi": 76,
          "time": 59.99994000000007,
          "velocity": 0.5905511811023622,
          "duration": 0.3333330000000032
        },
        {
          "name": "F5",
          "midi": 77,
          "time": 60.33327300000008,
          "velocity": 0.5905511811023622,
          "duration": 0.49999950000000126
        },
        {
          "name": "E5",
          "midi": 76,
          "time": 60.83327250000008,
          "velocity": 0.5905511811023622,
          "duration": 0.16666649999999805
        },
        {
          "name": "D5",
          "midi": 74,
          "time": 60.999939000000076,
          "velocity": 0.5905511811023622,
          "duration": 0.3333330000000032
        },
        {
          "name": "C#5",
          "midi": 73,
          "time": 61.33327200000008,
          "velocity": 0.5905511811023622,
          "duration": 0.49999950000000126
        },
        {
          "name": "A#4",
          "midi": 70,
          "time": 61.83327150000008,
          "velocity": 0.5905511811023622,
          "duration": 0.16666649999999805
        },
        {
          "name": "C#5",
          "midi": 73,
          "time": 61.99993800000008,
          "velocity": 0.5905511811023622,
          "duration": 0.3333330000000032
        },
        {
          "name": "D5",
          "midi": 74,
          "time": 62.33327100000008,
          "velocity": 0.5905511811023622,
          "duration": 0.9999990000000025
        },
        {
          "name": "D5",
          "midi": 74,
          "time": 63.333270000000084,
          "velocity": 0.5905511811023622,
          "duration": 1.999998000000005
        }
      ],
      "controlChanges": {
        "7": [
          {
            "number": 7,
            "time": 0,
            "value": 1
          }
        ],
        "10": [
          {
            "number": 10,
            "time": 0,
            "value": 0.5039370078740157
          }
        ]
      },
      "id": 2,
      "name": "Recorder",
      "instrumentNumber": 74,
      "instrument": "recorder",
      "instrumentFamily": "pipe",
      "channelNumber": 0,
      "isPercussion": false
    },
    {
      "startTime": 0,
      "duration": 65.33326800000006,
      "length": 120,
      "notes": [
        {
          "name": "D5",
          "midi": 74,
          "time": 0,
          "velocity": 0.5905511811023622,
          "duration": 0.333333
        },
        {
          "name": "D5",
          "midi": 74,
          "time": 0.333333,
          "velocity": 0.5905511811023622,
          "duration": 0.666666
        },
        {
          "name": "C5",
          "midi": 72,
          "time": 0.999999,
          "velocity": 0.5905511811023622,
          "duration": 0.333333
        },
        {
          "name": "C5",
          "midi": 72,
          "time": 1.333332,
          "velocity": 0.5905511811023622,
          "duration": 0.666666
        },
        {
          "name": "F5",
          "midi": 77,
          "time": 1.999998,
          "velocity": 0.5905511811023622,
          "duration": 0.3333329999999999
        },
        {
          "name": "E5",
          "midi": 76,
          "time": 2.333331,
          "velocity": 0.5905511811023622,
          "duration": 0.6666659999999998
        },
        {
          "name": "C5",
          "midi": 72,
          "time": 2.9999969999999996,
          "velocity": 0.5905511811023622,
          "duration": 0.3333330000000001
        },
        {
          "name": "C5",
          "midi": 72,
          "time": 3.3333299999999997,
          "velocity": 0.5905511811023622,
          "duration": 0.6666659999999998
        },
        {
          "name": "C5",
          "midi": 72,
          "time": 3.9999959999999994,
          "velocity": 0.5905511811023622,
          "duration": 0.33333299999999966
        },
        {
          "name": "A4",
          "midi": 69,
          "time": 4.333328999999999,
          "velocity": 0.5905511811023622,
          "duration": 0.6666660000000002
        },
        {
          "name": "A4",
          "midi": 69,
          "time": 4.999994999999999,
          "velocity": 0.5905511811023622,
          "duration": 0.33333299999999966
        },
        {
          "name": "G4",
          "midi": 67,
          "time": 5.333327999999999,
          "velocity": 0.5905511811023622,
          "duration": 0.6666660000000002
        },
        {
          "name": "D5",
          "midi": 74,
          "time": 5.999993999999999,
          "velocity": 0.5905511811023622,
          "duration": 0.33333299999999966
        },
        {
          "name": "C#5",
          "midi": 73,
          "time": 6.333326999999999,
          "velocity": 0.5905511811023622,
          "duration": 0.6666660000000002
        },
        {
          "name": "A4",
          "midi": 69,
          "time": 6.999992999999999,
          "velocity": 0.5905511811023622,
          "duration": 0.33333299999999966
        },
        {
          "name": "A4",
          "midi": 69,
          "time": 7.333325999999999,
          "velocity": 0.5905511811023622,
          "duration": 0.6666660000000002
        },
        {
          "name": "D5",
          "midi": 74,
          "time": 7.999991999999999,
          "velocity": 0.5905511811023622,
          "duration": 0.33333299999999966
        },
        {
          "name": "D5",
          "midi": 74,
          "time": 8.333324999999999,
          "velocity": 0.5905511811023622,
          "duration": 0.6666659999999993
        },
        {
          "name": "C5",
          "midi": 72,
          "time": 8.999990999999998,
          "velocity": 0.5905511811023622,
          "duration": 0.33333299999999966
        },
        {
          "name": "C5",
          "midi": 72,
          "time": 9.333323999999998,
          "velocity": 0.5905511811023622,
          "duration": 0.6666659999999993
        },
        {
          "name": "F5",
          "midi": 77,
          "time": 9.999989999999997,
          "velocity": 0.5905511811023622,
          "duration": 0.33333299999999966
        },
        {
          "name": "E5",
          "midi": 76,
          "time": 10.333322999999996,
          "velocity": 0.5905511811023622,
          "duration": 0.6666659999999993
        },
        {
          "name": "C5",
          "midi": 72,
          "time": 10.999988999999996,
          "velocity": 0.5905511811023622,
          "duration": 0.33333299999999966
        },
        {
          "name": "C5",
          "midi": 72,
          "time": 11.333321999999995,
          "velocity": 0.5905511811023622,
          "duration": 0.6666659999999993
        },
        {
          "name": "C5",
          "midi": 72,
          "time": 11.999987999999995,
          "velocity": 0.5905511811023622,
          "duration": 0.33333299999999966
        },
        {
          "name": "A4",
          "midi": 69,
          "time": 12.333320999999994,
          "velocity": 0.5905511811023622,
          "duration": 0.6666659999999993
        },
        {
          "name": "A#4",
          "midi": 70,
          "time": 12.999986999999994,
          "velocity": 0.5905511811023622,
          "duration": 0.33333299999999966
        },
        {
          "name": "A4",
          "midi": 69,
          "time": 13.333319999999993,
          "velocity": 0.5905511811023622,
          "duration": 0.6666659999999993
        },
        {
          "name": "A4",
          "midi": 69,
          "time": 13.999985999999993,
          "velocity": 0.5905511811023622,
          "duration": 0.33333299999999966
        },
        {
          "name": "A4",
          "midi": 69,
          "time": 14.333318999999992,
          "velocity": 0.5905511811023622,
          "duration": 0.9999990000000007
        },
        {
          "name": "A4",
          "midi": 69,
          "time": 15.333317999999993,
          "velocity": 0.5905511811023622,
          "duration": 0.9999990000000007
        },
        {
          "name": "E5",
          "midi": 76,
          "time": 16.333316999999994,
          "velocity": 0.5905511811023622,
          "duration": 0.999998999999999
        },
        {
          "name": "A5",
          "midi": 81,
          "time": 17.333315999999993,
          "velocity": 0.5905511811023622,
          "duration": 0.49999950000000126
        },
        {
          "name": "G5",
          "midi": 79,
          "time": 17.833315499999994,
          "velocity": 0.5905511811023622,
          "duration": 0.1666665000000016
        },
        {
          "name": "F5",
          "midi": 77,
          "time": 17.999981999999996,
          "velocity": 0.5905511811023622,
          "duration": 0.33333299999999966
        },
        {
          "name": "E5",
          "midi": 76,
          "time": 18.333314999999995,
          "velocity": 0.5905511811023622,
          "duration": 0.6666659999999993
        },
        {
          "name": "C5",
          "midi": 72,
          "time": 18.999980999999995,
          "velocity": 0.5905511811023622,
          "duration": 0.33333299999999966
        },
        {
          "name": "C5",
          "midi": 72,
          "time": 19.333313999999994,
          "velocity": 0.5905511811023622,
          "duration": 0.6666659999999993
        },
        {
          "name": "C5",
          "midi": 72,
          "time": 19.999979999999994,
          "velocity": 0.5905511811023622,
          "duration": 0.33333299999999966
        },
        {
          "name": "A4",
          "midi": 69,
          "time": 20.333312999999993,
          "velocity": 0.5905511811023622,
          "duration": 0.6666659999999993
        },
        {
          "name": "A4",
          "midi": 69,
          "time": 20.999978999999993,
          "velocity": 0.5905511811023622,
          "duration": 0.33333299999999966
        },
        {
          "name": "G4",
          "midi": 67,
          "time": 21.333311999999992,
          "velocity": 0.5905511811023622,
          "duration": 0.6666659999999993
        },
        {
          "name": "D5",
          "midi": 74,
          "time": 21.99997799999999,
          "velocity": 0.5905511811023622,
          "duration": 0.33333299999999966
        },
        {
          "name": "C#5",
          "midi": 73,
          "time": 22.33331099999999,
          "velocity": 0.5905511811023622,
          "duration": 0.6666659999999993
        },
        {
          "name": "A4",
          "midi": 69,
          "time": 22.99997699999999,
          "velocity": 0.5905511811023622,
          "duration": 0.33333299999999966
        },
        {
          "name": "A4",
          "midi": 69,
          "time": 23.33330999999999,
          "velocity": 0.5905511811023622,
          "duration": 0.999998999999999
        },
        {
          "name": "E5",
          "midi": 76,
          "time": 24.33330899999999,
          "velocity": 0.5905511811023622,
          "duration": 0.999998999999999
        },
        {
          "name": "A5",
          "midi": 81,
          "time": 25.333307999999988,
          "velocity": 0.5905511811023622,
          "duration": 0.49999950000000126
        },
        {
          "name": "G5",
          "midi": 79,
          "time": 25.83330749999999,
          "velocity": 0.5905511811023622,
          "duration": 0.1666665000000016
        },
        {
          "name": "F5",
          "midi": 77,
          "time": 25.99997399999999,
          "velocity": 0.5905511811023622,
          "duration": 0.33333299999999966
        },
        {
          "name": "E5",
          "midi": 76,
          "time": 26.33330699999999,
          "velocity": 0.5905511811023622,
          "duration": 0.6666659999999993
        },
        {
          "name": "C5",
          "midi": 72,
          "time": 26.99997299999999,
          "velocity": 0.5905511811023622,
          "duration": 0.33333299999999966
        },
        {
          "name": "C5",
          "midi": 72,
          "time": 27.33330599999999,
          "velocity": 0.5905511811023622,
          "duration": 0.6666659999999993
        },
        {
          "name": "C5",
          "midi": 72,
          "time": 27.99997199999999,
          "velocity": 0.5905511811023622,
          "duration": 0.33333299999999966
        },
        {
          "name": "A4",
          "midi": 69,
          "time": 28.33330499999999,
          "velocity": 0.5905511811023622,
          "duration": 0.6666659999999993
        },
        {
          "name": "A#4",
          "midi": 70,
          "time": 28.999970999999988,
          "velocity": 0.5905511811023622,
          "duration": 0.33333299999999966
        },
        {
          "name": "A4",
          "midi": 69,
          "time": 29.333303999999988,
          "velocity": 0.5905511811023622,
          "duration": 0.6666659999999993
        },
        {
          "name": "A4",
          "midi": 69,
          "time": 29.999969999999987,
          "velocity": 0.5905511811023622,
          "duration": 0.33333299999999966
        },
        {
          "name": "A4",
          "midi": 69,
          "time": 30.333302999999987,
          "velocity": 0.5905511811023622,
          "duration": 0.999998999999999
        },
        {
          "name": "A4",
          "midi": 69,
          "time": 31.333301999999986,
          "velocity": 0.5905511811023622,
          "duration": 0.6666659999999993
        },
        {
          "name": "D5",
          "midi": 74,
          "time": 31.999967999999985,
          "velocity": 0.5905511811023622,
          "duration": 0.33333299999999966
        },
        {
          "name": "D5",
          "midi": 74,
          "time": 32.333300999999985,
          "velocity": 0.5905511811023622,
          "duration": 0.6666659999999993
        },
        {
          "name": "C5",
          "midi": 72,
          "time": 32.999966999999984,
          "velocity": 0.5905511811023622,
          "duration": 0.3333330000000032
        },
        {
          "name": "C5",
          "midi": 72,
          "time": 33.33329999999999,
          "velocity": 0.5905511811023622,
          "duration": 0.6666659999999993
        },
        {
          "name": "F5",
          "midi": 77,
          "time": 33.999965999999986,
          "velocity": 0.5905511811023622,
          "duration": 0.3333330000000032
        },
        {
          "name": "E5",
          "midi": 76,
          "time": 34.33329899999999,
          "velocity": 0.5905511811023622,
          "duration": 0.6666659999999993
        },
        {
          "name": "C5",
          "midi": 72,
          "time": 34.99996499999999,
          "velocity": 0.5905511811023622,
          "duration": 0.3333330000000032
        },
        {
          "name": "C5",
          "midi": 72,
          "time": 35.33329799999999,
          "velocity": 0.5905511811023622,
          "duration": 0.6666659999999993
        },
        {
          "name": "C5",
          "midi": 72,
          "time": 35.99996399999999,
          "velocity": 0.5905511811023622,
          "duration": 0.3333330000000032
        },
        {
          "name": "A4",
          "midi": 69,
          "time": 36.333296999999995,
          "velocity": 0.5905511811023622,
          "duration": 0.6666659999999993
        },
        {
          "name": "A4",
          "midi": 69,
          "time": 36.999962999999994,
          "velocity": 0.5905511811023622,
          "duration": 0.3333330000000032
        },
        {
          "name": "G4",
          "midi": 67,
          "time": 37.333296,
          "velocity": 0.5905511811023622,
          "duration": 0.6666659999999993
        },
        {
          "name": "D5",
          "midi": 74,
          "time": 37.999962,
          "velocity": 0.5905511811023622,
          "duration": 0.3333330000000032
        },
        {
          "name": "C#5",
          "midi": 73,
          "time": 38.333295,
          "velocity": 0.5905511811023622,
          "duration": 0.6666659999999993
        },
        {
          "name": "A4",
          "midi": 69,
          "time": 38.999961,
          "velocity": 0.5905511811023622,
          "duration": 0.3333330000000032
        },
        {
          "name": "A4",
          "midi": 69,
          "time": 39.333294,
          "velocity": 0.5905511811023622,
          "duration": 0.6666659999999993
        },
        {
          "name": "D5",
          "midi": 74,
          "time": 39.99996,
          "velocity": 0.5905511811023622,
          "duration": 0.3333330000000032
        },
        {
          "name": "D5",
          "midi": 74,
          "time": 40.333293000000005,
          "velocity": 0.5905511811023622,
          "duration": 0.6666659999999993
        },
        {
          "name": "C5",
          "midi": 72,
          "time": 40.999959000000004,
          "velocity": 0.5905511811023622,
          "duration": 0.3333330000000032
        },
        {
          "name": "C5",
          "midi": 72,
          "time": 41.33329200000001,
          "velocity": 0.5905511811023622,
          "duration": 0.6666659999999993
        },
        {
          "name": "F5",
          "midi": 77,
          "time": 41.99995800000001,
          "velocity": 0.5905511811023622,
          "duration": 0.3333330000000032
        },
        {
          "name": "E5",
          "midi": 76,
          "time": 42.33329100000001,
          "velocity": 0.5905511811023622,
          "duration": 0.6666659999999993
        },
        {
          "name": "C5",
          "midi": 72,
          "time": 42.99995700000001,
          "velocity": 0.5905511811023622,
          "duration": 0.3333330000000032
        },
        {
          "name": "C5",
          "midi": 72,
          "time": 43.33329000000001,
          "velocity": 0.5905511811023622,
          "duration": 0.6666659999999993
        },
        {
          "name": "C5",
          "midi": 72,
          "time": 43.99995600000001,
          "velocity": 0.5905511811023622,
          "duration": 0.3333330000000032
        },
        {
          "name": "A4",
          "midi": 69,
          "time": 44.333289000000015,
          "velocity": 0.5905511811023622,
          "duration": 0.6666659999999993
        },
        {
          "name": "A#4",
          "midi": 70,
          "time": 44.999955000000014,
          "velocity": 0.5905511811023622,
          "duration": 0.3333330000000032
        },
        {
          "name": "A4",
          "midi": 69,
          "time": 45.33328800000002,
          "velocity": 0.5905511811023622,
          "duration": 0.6666659999999993
        },
        {
          "name": "A4",
          "midi": 69,
          "time": 45.99995400000002,
          "velocity": 0.5905511811023622,
          "duration": 0.3333330000000032
        },
        {
          "name": "A4",
          "midi": 69,
          "time": 46.33328700000002,
          "velocity": 0.5905511811023622,
          "duration": 0.9999990000000025
        },
        {
          "name": "A4",
          "midi": 69,
          "time": 47.33328600000002,
          "velocity": 0.5905511811023622,
          "duration": 0.9999990000000025
        },
        {
          "name": "E5",
          "midi": 76,
          "time": 48.333285000000025,
          "velocity": 0.5905511811023622,
          "duration": 0.9999990000000025
        },
        {
          "name": "A5",
          "midi": 81,
          "time": 49.33328400000003,
          "velocity": 0.5905511811023622,
          "duration": 0.49999950000000126
        },
        {
          "name": "G5",
          "midi": 79,
          "time": 49.83328350000003,
          "velocity": 0.5905511811023622,
          "duration": 0.16666649999999805
        },
        {
          "name": "F5",
          "midi": 77,
          "time": 49.99995000000003,
          "velocity": 0.5905511811023622,
          "duration": 0.3333330000000032
        },
        {
          "name": "E5",
          "midi": 76,
          "time": 50.33328300000003,
          "velocity": 0.5905511811023622,
          "duration": 0.6666659999999993
        },
        {
          "name": "C5",
          "midi": 72,
          "time": 50.99994900000003,
          "velocity": 0.5905511811023622,
          "duration": 0.3333330000000032
        },
        {
          "name": "C5",
          "midi": 72,
          "time": 51.33328200000003,
          "velocity": 0.5905511811023622,
          "duration": 0.6666659999999993
        },
        {
          "name": "C5",
          "midi": 72,
          "time": 51.99994800000003,
          "velocity": 0.5905511811023622,
          "duration": 0.3333330000000032
        },
        {
          "name": "A4",
          "midi": 69,
          "time": 52.333281000000035,
          "velocity": 0.5905511811023622,
          "duration": 0.6666659999999993
        },
        {
          "name": "A4",
          "midi": 69,
          "time": 52.999947000000034,
          "velocity": 0.5905511811023622,
          "duration": 0.3333330000000032
        },
        {
          "name": "G4",
          "midi": 67,
          "time": 53.33328000000004,
          "velocity": 0.5905511811023622,
          "duration": 0.6666659999999993
        },
        {
          "name": "D5",
          "midi": 74,
          "time": 53.99994600000004,
          "velocity": 0.5905511811023622,
          "duration": 0.3333330000000032
        },
        {
          "name": "C#5",
          "midi": 73,
          "time": 54.33327900000004,
          "velocity": 0.5905511811023622,
          "duration": 0.6666659999999993
        },
        {
          "name": "A4",
          "midi": 69,
          "time": 54.99994500000004,
          "velocity": 0.5905511811023622,
          "duration": 0.3333330000000032
        },
        {
          "name": "A4",
          "midi": 69,
          "time": 55.33327800000004,
          "velocity": 0.5905511811023622,
          "duration": 0.9999990000000025
        },
        {
          "name": "E5",
          "midi": 76,
          "time": 56.333277000000045,
          "velocity": 0.5905511811023622,
          "duration": 0.9999990000000025
        },
        {
          "name": "A5",
          "midi": 81,
          "time": 57.33327600000005,
          "velocity": 0.5905511811023622,
          "duration": 0.49999950000000126
        },
        {
          "name": "G5",
          "midi": 79,
          "time": 57.83327550000005,
          "velocity": 0.5905511811023622,
          "duration": 0.16666649999999805
        },
        {
          "name": "F5",
          "midi": 77,
          "time": 57.99994200000005,
          "velocity": 0.5905511811023622,
          "duration": 0.3333330000000032
        },
        {
          "name": "E5",
          "midi": 76,
          "time": 58.33327500000005,
          "velocity": 0.5905511811023622,
          "duration": 0.6666659999999993
        },
        {
          "name": "C5",
          "midi": 72,
          "time": 58.99994100000005,
          "velocity": 0.5905511811023622,
          "duration": 0.3333330000000032
        },
        {
          "name": "C5",
          "midi": 72,
          "time": 59.33327400000005,
          "velocity": 0.5905511811023622,
          "duration": 0.6666659999999993
        },
        {
          "name": "C5",
          "midi": 72,
          "time": 59.99994000000005,
          "velocity": 0.5905511811023622,
          "duration": 0.3333330000000032
        },
        {
          "name": "A4",
          "midi": 69,
          "time": 60.333273000000055,
          "velocity": 0.5905511811023622,
          "duration": 0.6666659999999993
        },
        {
          "name": "A#4",
          "midi": 70,
          "time": 60.999939000000055,
          "velocity": 0.5905511811023622,
          "duration": 0.3333330000000032
        },
        {
          "name": "A4",
          "midi": 69,
          "time": 61.33327200000006,
          "velocity": 0.5905511811023622,
          "duration": 0.6666659999999993
        },
        {
          "name": "A4",
          "midi": 69,
          "time": 61.99993800000006,
          "velocity": 0.5905511811023622,
          "duration": 0.3333330000000032
        },
        {
          "name": "A4",
          "midi": 69,
          "time": 62.33327100000006,
          "velocity": 0.5905511811023622,
          "duration": 0.9999990000000025
        },
        {
          "name": "A4",
          "midi": 69,
          "time": 63.33327000000006,
          "velocity": 0.5905511811023622,
          "duration": 1.999997999999998
        }
      ],
      "controlChanges": {
        "7": [
          {
            "number": 7,
            "time": 0,
            "value": 1
          }
        ],
        "10": [
          {
            "number": 10,
            "time": 0,
            "value": 0.5039370078740157
          }
        ]
      },
      "id": 3,
      "name": "Recorder-2",
      "instrumentNumber": 74,
      "instrument": "recorder",
      "instrumentFamily": "pipe",
      "channelNumber": 1,
      "isPercussion": false
    },
    {
      "startTime": 0,
      "duration": 65.33326800000006,
      "length": 112,
      "notes": [
        {
          "name": "F4",
          "midi": 65,
          "time": 0,
          "velocity": 0.5905511811023622,
          "duration": 0.333333
        },
        {
          "name": "A4",
          "midi": 69,
          "time": 0.333333,
          "velocity": 0.5905511811023622,
          "duration": 0.666666
        },
        {
          "name": "G4",
          "midi": 67,
          "time": 0.999999,
          "velocity": 0.5905511811023622,
          "duration": 0.333333
        },
        {
          "name": "F4",
          "midi": 65,
          "time": 1.333332,
          "velocity": 0.5905511811023622,
          "duration": 0.666666
        },
        {
          "name": "A4",
          "midi": 69,
          "time": 1.999998,
          "velocity": 0.5905511811023622,
          "duration": 0.3333329999999999
        },
        {
          "name": "C5",
          "midi": 72,
          "time": 2.333331,
          "velocity": 0.5905511811023622,
          "duration": 0.6666659999999998
        },
        {
          "name": "G4",
          "midi": 67,
          "time": 2.9999969999999996,
          "velocity": 0.5905511811023622,
          "duration": 0.3333330000000001
        },
        {
          "name": "E4",
          "midi": 64,
          "time": 3.3333299999999997,
          "velocity": 0.5905511811023622,
          "duration": 0.6666659999999998
        },
        {
          "name": "G4",
          "midi": 67,
          "time": 3.9999959999999994,
          "velocity": 0.5905511811023622,
          "duration": 0.33333299999999966
        },
        {
          "name": "F4",
          "midi": 65,
          "time": 4.333328999999999,
          "velocity": 0.5905511811023622,
          "duration": 0.6666660000000002
        },
        {
          "name": "F4",
          "midi": 65,
          "time": 4.999994999999999,
          "velocity": 0.5905511811023622,
          "duration": 0.33333299999999966
        },
        {
          "name": "D4",
          "midi": 62,
          "time": 5.333327999999999,
          "velocity": 0.5905511811023622,
          "duration": 0.6666660000000002
        },
        {
          "name": "D4",
          "midi": 62,
          "time": 5.999993999999999,
          "velocity": 0.5905511811023622,
          "duration": 0.33333299999999966
        },
        {
          "name": "A4",
          "midi": 69,
          "time": 6.333326999999999,
          "velocity": 0.5905511811023622,
          "duration": 0.9999989999999999
        },
        {
          "name": "A4",
          "midi": 69,
          "time": 7.333325999999999,
          "velocity": 0.5905511811023622,
          "duration": 0.6666660000000002
        },
        {
          "name": "F4",
          "midi": 65,
          "time": 7.999991999999999,
          "velocity": 0.5905511811023622,
          "duration": 0.33333299999999966
        },
        {
          "name": "A4",
          "midi": 69,
          "time": 8.333324999999999,
          "velocity": 0.5905511811023622,
          "duration": 0.6666659999999993
        },
        {
          "name": "G4",
          "midi": 67,
          "time": 8.999990999999998,
          "velocity": 0.5905511811023622,
          "duration": 0.33333299999999966
        },
        {
          "name": "F4",
          "midi": 65,
          "time": 9.333323999999998,
          "velocity": 0.5905511811023622,
          "duration": 0.6666659999999993
        },
        {
          "name": "A4",
          "midi": 69,
          "time": 9.999989999999997,
          "velocity": 0.5905511811023622,
          "duration": 0.33333299999999966
        },
        {
          "name": "C5",
          "midi": 72,
          "time": 10.333322999999996,
          "velocity": 0.5905511811023622,
          "duration": 0.6666659999999993
        },
        {
          "name": "G4",
          "midi": 67,
          "time": 10.999988999999996,
          "velocity": 0.5905511811023622,
          "duration": 0.33333299999999966
        },
        {
          "name": "E4",
          "midi": 64,
          "time": 11.333321999999995,
          "velocity": 0.5905511811023622,
          "duration": 0.6666659999999993
        },
        {
          "name": "G4",
          "midi": 67,
          "time": 11.999987999999995,
          "velocity": 0.5905511811023622,
          "duration": 0.33333299999999966
        },
        {
          "name": "F4",
          "midi": 65,
          "time": 12.333320999999994,
          "velocity": 0.5905511811023622,
          "duration": 0.6666659999999993
        },
        {
          "name": "G4",
          "midi": 67,
          "time": 12.999986999999994,
          "velocity": 0.5905511811023622,
          "duration": 0.33333299999999966
        },
        {
          "name": "E4",
          "midi": 64,
          "time": 13.333319999999993,
          "velocity": 0.5905511811023622,
          "duration": 0.6666659999999993
        },
        {
          "name": "A4",
          "midi": 69,
          "time": 13.999985999999993,
          "velocity": 0.5905511811023622,
          "duration": 0.33333299999999966
        },
        {
          "name": "G4",
          "midi": 67,
          "time": 14.333318999999992,
          "velocity": 0.5905511811023622,
          "duration": 0.9999990000000007
        },
        {
          "name": "F4",
          "midi": 65,
          "time": 15.333317999999993,
          "velocity": 0.5905511811023622,
          "duration": 0.9999990000000007
        },
        {
          "name": "C5",
          "midi": 72,
          "time": 16.333316999999994,
          "velocity": 0.5905511811023622,
          "duration": 0.999998999999999
        },
        {
          "name": "C5",
          "midi": 72,
          "time": 17.333315999999993,
          "velocity": 0.5905511811023622,
          "duration": 0.6666659999999993
        },
        {
          "name": "C5",
          "midi": 72,
          "time": 17.999981999999992,
          "velocity": 0.5905511811023622,
          "duration": 0.33333299999999966
        },
        {
          "name": "C5",
          "midi": 72,
          "time": 18.333314999999992,
          "velocity": 0.5905511811023622,
          "duration": 0.6666659999999993
        },
        {
          "name": "G4",
          "midi": 67,
          "time": 18.99998099999999,
          "velocity": 0.5905511811023622,
          "duration": 0.33333299999999966
        },
        {
          "name": "E4",
          "midi": 64,
          "time": 19.33331399999999,
          "velocity": 0.5905511811023622,
          "duration": 0.6666659999999993
        },
        {
          "name": "G4",
          "midi": 67,
          "time": 19.99997999999999,
          "velocity": 0.5905511811023622,
          "duration": 0.33333299999999966
        },
        {
          "name": "F4",
          "midi": 65,
          "time": 20.33331299999999,
          "velocity": 0.5905511811023622,
          "duration": 0.6666659999999993
        },
        {
          "name": "F4",
          "midi": 65,
          "time": 20.99997899999999,
          "velocity": 0.5905511811023622,
          "duration": 0.33333299999999966
        },
        {
          "name": "D4",
          "midi": 62,
          "time": 21.33331199999999,
          "velocity": 0.5905511811023622,
          "duration": 0.6666659999999993
        },
        {
          "name": "D4",
          "midi": 62,
          "time": 21.999977999999988,
          "velocity": 0.5905511811023622,
          "duration": 0.33333299999999966
        },
        {
          "name": "A4",
          "midi": 69,
          "time": 22.333310999999988,
          "velocity": 0.5905511811023622,
          "duration": 0.999998999999999
        },
        {
          "name": "A4",
          "midi": 69,
          "time": 23.333309999999987,
          "velocity": 0.5905511811023622,
          "duration": 0.999998999999999
        },
        {
          "name": "C5",
          "midi": 72,
          "time": 24.333308999999986,
          "velocity": 0.5905511811023622,
          "duration": 0.999998999999999
        },
        {
          "name": "C5",
          "midi": 72,
          "time": 25.333307999999985,
          "velocity": 0.5905511811023622,
          "duration": 0.6666659999999993
        },
        {
          "name": "C5",
          "midi": 72,
          "time": 25.999973999999984,
          "velocity": 0.5905511811023622,
          "duration": 0.33333299999999966
        },
        {
          "name": "C5",
          "midi": 72,
          "time": 26.333306999999984,
          "velocity": 0.5905511811023622,
          "duration": 0.6666659999999993
        },
        {
          "name": "G4",
          "midi": 67,
          "time": 26.999972999999983,
          "velocity": 0.5905511811023622,
          "duration": 0.33333299999999966
        },
        {
          "name": "E4",
          "midi": 64,
          "time": 27.333305999999983,
          "velocity": 0.5905511811023622,
          "duration": 0.6666659999999993
        },
        {
          "name": "G4",
          "midi": 67,
          "time": 27.999971999999982,
          "velocity": 0.5905511811023622,
          "duration": 0.33333299999999966
        },
        {
          "name": "F4",
          "midi": 65,
          "time": 28.33330499999998,
          "velocity": 0.5905511811023622,
          "duration": 0.6666659999999993
        },
        {
          "name": "G4",
          "midi": 67,
          "time": 28.99997099999998,
          "velocity": 0.5905511811023622,
          "duration": 0.33333299999999966
        },
        {
          "name": "E4",
          "midi": 64,
          "time": 29.33330399999998,
          "velocity": 0.5905511811023622,
          "duration": 0.6666659999999993
        },
        {
          "name": "A4",
          "midi": 69,
          "time": 29.99996999999998,
          "velocity": 0.5905511811023622,
          "duration": 0.33333299999999966
        },
        {
          "name": "G4",
          "midi": 67,
          "time": 30.33330299999998,
          "velocity": 0.5905511811023622,
          "duration": 0.999998999999999
        },
        {
          "name": "F4",
          "midi": 65,
          "time": 31.33330199999998,
          "velocity": 0.5905511811023622,
          "duration": 0.6666659999999993
        },
        {
          "name": "F4",
          "midi": 65,
          "time": 31.999967999999978,
          "velocity": 0.5905511811023622,
          "duration": 0.33333299999999966
        },
        {
          "name": "A4",
          "midi": 69,
          "time": 32.33330099999998,
          "velocity": 0.5905511811023622,
          "duration": 0.6666659999999993
        },
        {
          "name": "G4",
          "midi": 67,
          "time": 32.99996699999998,
          "velocity": 0.5905511811023622,
          "duration": 0.3333330000000032
        },
        {
          "name": "F4",
          "midi": 65,
          "time": 33.33329999999998,
          "velocity": 0.5905511811023622,
          "duration": 0.6666659999999993
        },
        {
          "name": "A4",
          "midi": 69,
          "time": 33.99996599999998,
          "velocity": 0.5905511811023622,
          "duration": 0.3333330000000032
        },
        {
          "name": "C5",
          "midi": 72,
          "time": 34.33329899999998,
          "velocity": 0.5905511811023622,
          "duration": 0.6666659999999993
        },
        {
          "name": "G4",
          "midi": 67,
          "time": 34.99996499999998,
          "velocity": 0.5905511811023622,
          "duration": 0.3333330000000032
        },
        {
          "name": "E4",
          "midi": 64,
          "time": 35.333297999999985,
          "velocity": 0.5905511811023622,
          "duration": 0.6666659999999993
        },
        {
          "name": "G4",
          "midi": 67,
          "time": 35.999963999999984,
          "velocity": 0.5905511811023622,
          "duration": 0.3333330000000032
        },
        {
          "name": "F4",
          "midi": 65,
          "time": 36.33329699999999,
          "velocity": 0.5905511811023622,
          "duration": 0.6666659999999993
        },
        {
          "name": "F4",
          "midi": 65,
          "time": 36.99996299999999,
          "velocity": 0.5905511811023622,
          "duration": 0.3333330000000032
        },
        {
          "name": "D4",
          "midi": 62,
          "time": 37.33329599999999,
          "velocity": 0.5905511811023622,
          "duration": 0.6666659999999993
        },
        {
          "name": "D4",
          "midi": 62,
          "time": 37.99996199999999,
          "velocity": 0.5905511811023622,
          "duration": 0.3333330000000032
        },
        {
          "name": "A4",
          "midi": 69,
          "time": 38.33329499999999,
          "velocity": 0.5905511811023622,
          "duration": 0.9999990000000025
        },
        {
          "name": "A4",
          "midi": 69,
          "time": 39.333293999999995,
          "velocity": 0.5905511811023622,
          "duration": 0.6666659999999993
        },
        {
          "name": "F4",
          "midi": 65,
          "time": 39.999959999999994,
          "velocity": 0.5905511811023622,
          "duration": 0.3333330000000032
        },
        {
          "name": "A4",
          "midi": 69,
          "time": 40.333293,
          "velocity": 0.5905511811023622,
          "duration": 0.6666659999999993
        },
        {
          "name": "G4",
          "midi": 67,
          "time": 40.999959,
          "velocity": 0.5905511811023622,
          "duration": 0.3333330000000032
        },
        {
          "name": "F4",
          "midi": 65,
          "time": 41.333292,
          "velocity": 0.5905511811023622,
          "duration": 0.6666659999999993
        },
        {
          "name": "A4",
          "midi": 69,
          "time": 41.999958,
          "velocity": 0.5905511811023622,
          "duration": 0.3333330000000032
        },
        {
          "name": "C5",
          "midi": 72,
          "time": 42.333291,
          "velocity": 0.5905511811023622,
          "duration": 0.6666659999999993
        },
        {
          "name": "G4",
          "midi": 67,
          "time": 42.999957,
          "velocity": 0.5905511811023622,
          "duration": 0.3333330000000032
        },
        {
          "name": "E4",
          "midi": 64,
          "time": 43.333290000000005,
          "velocity": 0.5905511811023622,
          "duration": 0.6666659999999993
        },
        {
          "name": "G4",
          "midi": 67,
          "time": 43.999956000000005,
          "velocity": 0.5905511811023622,
          "duration": 0.3333330000000032
        },
        {
          "name": "F4",
          "midi": 65,
          "time": 44.33328900000001,
          "velocity": 0.5905511811023622,
          "duration": 0.6666659999999993
        },
        {
          "name": "G4",
          "midi": 67,
          "time": 44.99995500000001,
          "velocity": 0.5905511811023622,
          "duration": 0.3333330000000032
        },
        {
          "name": "E4",
          "midi": 64,
          "time": 45.33328800000001,
          "velocity": 0.5905511811023622,
          "duration": 0.6666659999999993
        },
        {
          "name": "A4",
          "midi": 69,
          "time": 45.99995400000001,
          "velocity": 0.5905511811023622,
          "duration": 0.3333330000000032
        },
        {
          "name": "G4",
          "midi": 67,
          "time": 46.33328700000001,
          "velocity": 0.5905511811023622,
          "duration": 0.9999990000000025
        },
        {
          "name": "F4",
          "midi": 65,
          "time": 47.333286000000015,
          "velocity": 0.5905511811023622,
          "duration": 0.9999990000000025
        },
        {
          "name": "C5",
          "midi": 72,
          "time": 48.33328500000002,
          "velocity": 0.5905511811023622,
          "duration": 0.9999990000000025
        },
        {
          "name": "C5",
          "midi": 72,
          "time": 49.33328400000002,
          "velocity": 0.5905511811023622,
          "duration": 0.6666659999999993
        },
        {
          "name": "C5",
          "midi": 72,
          "time": 49.99995000000002,
          "velocity": 0.5905511811023622,
          "duration": 0.3333330000000032
        },
        {
          "name": "C5",
          "midi": 72,
          "time": 50.33328300000002,
          "velocity": 0.5905511811023622,
          "duration": 0.6666659999999993
        },
        {
          "name": "G4",
          "midi": 67,
          "time": 50.99994900000002,
          "velocity": 0.5905511811023622,
          "duration": 0.3333330000000032
        },
        {
          "name": "E4",
          "midi": 64,
          "time": 51.333282000000025,
          "velocity": 0.5905511811023622,
          "duration": 0.6666659999999993
        },
        {
          "name": "G4",
          "midi": 67,
          "time": 51.999948000000025,
          "velocity": 0.5905511811023622,
          "duration": 0.3333330000000032
        },
        {
          "name": "F4",
          "midi": 65,
          "time": 52.33328100000003,
          "velocity": 0.5905511811023622,
          "duration": 0.6666659999999993
        },
        {
          "name": "F4",
          "midi": 65,
          "time": 52.99994700000003,
          "velocity": 0.5905511811023622,
          "duration": 0.3333330000000032
        },
        {
          "name": "D4",
          "midi": 62,
          "time": 53.33328000000003,
          "velocity": 0.5905511811023622,
          "duration": 0.6666659999999993
        },
        {
          "name": "D4",
          "midi": 62,
          "time": 53.99994600000003,
          "velocity": 0.5905511811023622,
          "duration": 0.3333330000000032
        },
        {
          "name": "A4",
          "midi": 69,
          "time": 54.33327900000003,
          "velocity": 0.5905511811023622,
          "duration": 0.9999990000000025
        },
        {
          "name": "A4",
          "midi": 69,
          "time": 55.333278000000035,
          "velocity": 0.5905511811023622,
          "duration": 0.9999990000000025
        },
        {
          "name": "C5",
          "midi": 72,
          "time": 56.33327700000004,
          "velocity": 0.5905511811023622,
          "duration": 0.9999990000000025
        },
        {
          "name": "C5",
          "midi": 72,
          "time": 57.33327600000004,
          "velocity": 0.5905511811023622,
          "duration": 0.6666659999999993
        },
        {
          "name": "C5",
          "midi": 72,
          "time": 57.99994200000004,
          "velocity": 0.5905511811023622,
          "duration": 0.3333330000000032
        },
        {
          "name": "C5",
          "midi": 72,
          "time": 58.33327500000004,
          "velocity": 0.5905511811023622,
          "duration": 0.6666659999999993
        },
        {
          "name": "G4",
          "midi": 67,
          "time": 58.99994100000004,
          "velocity": 0.5905511811023622,
          "duration": 0.3333330000000032
        },
        {
          "name": "E4",
          "midi": 64,
          "time": 59.333274000000046,
          "velocity": 0.5905511811023622,
          "duration": 0.6666659999999993
        },
        {
          "name": "G4",
          "midi": 67,
          "time": 59.999940000000045,
          "velocity": 0.5905511811023622,
          "duration": 0.3333330000000032
        },
        {
          "name": "F4",
          "midi": 65,
          "time": 60.33327300000005,
          "velocity": 0.5905511811023622,
          "duration": 0.6666659999999993
        },
        {
          "name": "G4",
          "midi": 67,
          "time": 60.99993900000005,
          "velocity": 0.5905511811023622,
          "duration": 0.3333330000000032
        },
        {
          "name": "E4",
          "midi": 64,
          "time": 61.33327200000005,
          "velocity": 0.5905511811023622,
          "duration": 0.6666659999999993
        },
        {
          "name": "A4",
          "midi": 69,
          "time": 61.99993800000005,
          "velocity": 0.5905511811023622,
          "duration": 0.3333330000000032
        },
        {
          "name": "G4",
          "midi": 67,
          "time": 62.33327100000005,
          "velocity": 0.5905511811023622,
          "duration": 0.9999990000000025
        },
        {
          "name": "F4",
          "midi": 65,
          "time": 63.333270000000056,
          "velocity": 0.5905511811023622,
          "duration": 1.999998000000005
        }
      ],
      "controlChanges": {
        "7": [
          {
            "number": 7,
            "time": 0,
            "value": 1
          }
        ],
        "10": [
          {
            "number": 10,
            "time": 0,
            "value": 0.5039370078740157
          }
        ]
      },
      "id": 4,
      "name": "Recorder-3",
      "instrumentNumber": 74,
      "instrument": "recorder",
      "instrumentFamily": "pipe",
      "channelNumber": 2,
      "isPercussion": false
    },
    {
      "startTime": 0,
      "duration": 65.33326800000006,
      "length": 112,
      "notes": [
        {
          "name": "D3",
          "midi": 50,
          "time": 0,
          "velocity": 0.5905511811023622,
          "duration": 0.333333
        },
        {
          "name": "D3",
          "midi": 50,
          "time": 0.333333,
          "velocity": 0.5905511811023622,
          "duration": 0.666666
        },
        {
          "name": "E3",
          "midi": 52,
          "time": 0.999999,
          "velocity": 0.5905511811023622,
          "duration": 0.333333
        },
        {
          "name": "F3",
          "midi": 53,
          "time": 1.333332,
          "velocity": 0.5905511811023622,
          "duration": 0.666666
        },
        {
          "name": "F3",
          "midi": 53,
          "time": 1.999998,
          "velocity": 0.5905511811023622,
          "duration": 0.3333329999999999
        },
        {
          "name": "C3",
          "midi": 48,
          "time": 2.333331,
          "velocity": 0.5905511811023622,
          "duration": 0.6666659999999998
        },
        {
          "name": "C3",
          "midi": 48,
          "time": 2.9999969999999996,
          "velocity": 0.5905511811023622,
          "duration": 0.3333330000000001
        },
        {
          "name": "C3",
          "midi": 48,
          "time": 3.3333299999999997,
          "velocity": 0.5905511811023622,
          "duration": 0.6666659999999998
        },
        {
          "name": "C3",
          "midi": 48,
          "time": 3.9999959999999994,
          "velocity": 0.5905511811023622,
          "duration": 0.33333299999999966
        },
        {
          "name": "D3",
          "midi": 50,
          "time": 4.333328999999999,
          "velocity": 0.5905511811023622,
          "duration": 0.6666660000000002
        },
        {
          "name": "D3",
          "midi": 50,
          "time": 4.999994999999999,
          "velocity": 0.5905511811023622,
          "duration": 0.33333299999999966
        },
        {
          "name": "A#2",
          "midi": 46,
          "time": 5.333327999999999,
          "velocity": 0.5905511811023622,
          "duration": 0.6666660000000002
        },
        {
          "name": "A#2",
          "midi": 46,
          "time": 5.999993999999999,
          "velocity": 0.5905511811023622,
          "duration": 0.33333299999999966
        },
        {
          "name": "A2",
          "midi": 45,
          "time": 6.333326999999999,
          "velocity": 0.5905511811023622,
          "duration": 0.9999989999999999
        },
        {
          "name": "A2",
          "midi": 45,
          "time": 7.333325999999999,
          "velocity": 0.5905511811023622,
          "duration": 0.6666660000000002
        },
        {
          "name": "D3",
          "midi": 50,
          "time": 7.999991999999999,
          "velocity": 0.5905511811023622,
          "duration": 0.33333299999999966
        },
        {
          "name": "D3",
          "midi": 50,
          "time": 8.333324999999999,
          "velocity": 0.5905511811023622,
          "duration": 0.6666659999999993
        },
        {
          "name": "E3",
          "midi": 52,
          "time": 8.999990999999998,
          "velocity": 0.5905511811023622,
          "duration": 0.33333299999999966
        },
        {
          "name": "F3",
          "midi": 53,
          "time": 9.333323999999998,
          "velocity": 0.5905511811023622,
          "duration": 0.6666659999999993
        },
        {
          "name": "F3",
          "midi": 53,
          "time": 9.999989999999997,
          "velocity": 0.5905511811023622,
          "duration": 0.33333299999999966
        },
        {
          "name": "C3",
          "midi": 48,
          "time": 10.333322999999996,
          "velocity": 0.5905511811023622,
          "duration": 0.6666659999999993
        },
        {
          "name": "C3",
          "midi": 48,
          "time": 10.999988999999996,
          "velocity": 0.5905511811023622,
          "duration": 0.33333299999999966
        },
        {
          "name": "C3",
          "midi": 48,
          "time": 11.333321999999995,
          "velocity": 0.5905511811023622,
          "duration": 0.6666659999999993
        },
        {
          "name": "C3",
          "midi": 48,
          "time": 11.999987999999995,
          "velocity": 0.5905511811023622,
          "duration": 0.33333299999999966
        },
        {
          "name": "D3",
          "midi": 50,
          "time": 12.333320999999994,
          "velocity": 0.5905511811023622,
          "duration": 0.6666659999999993
        },
        {
          "name": "G2",
          "midi": 43,
          "time": 12.999986999999994,
          "velocity": 0.5905511811023622,
          "duration": 0.33333299999999966
        },
        {
          "name": "A2",
          "midi": 45,
          "time": 13.333319999999993,
          "velocity": 0.5905511811023622,
          "duration": 0.6666659999999993
        },
        {
          "name": "A2",
          "midi": 45,
          "time": 13.999985999999993,
          "velocity": 0.5905511811023622,
          "duration": 0.33333299999999966
        },
        {
          "name": "D3",
          "midi": 50,
          "time": 14.333318999999992,
          "velocity": 0.5905511811023622,
          "duration": 0.9999990000000007
        },
        {
          "name": "D3",
          "midi": 50,
          "time": 15.333317999999993,
          "velocity": 0.5905511811023622,
          "duration": 0.9999990000000007
        },
        {
          "name": "A3",
          "midi": 57,
          "time": 16.333316999999994,
          "velocity": 0.5905511811023622,
          "duration": 0.999998999999999
        },
        {
          "name": "F3",
          "midi": 53,
          "time": 17.333315999999993,
          "velocity": 0.5905511811023622,
          "duration": 0.6666659999999993
        },
        {
          "name": "F3",
          "midi": 53,
          "time": 17.999981999999992,
          "velocity": 0.5905511811023622,
          "duration": 0.33333299999999966
        },
        {
          "name": "C3",
          "midi": 48,
          "time": 18.333314999999992,
          "velocity": 0.5905511811023622,
          "duration": 0.6666659999999993
        },
        {
          "name": "C3",
          "midi": 48,
          "time": 18.99998099999999,
          "velocity": 0.5905511811023622,
          "duration": 0.33333299999999966
        },
        {
          "name": "C3",
          "midi": 48,
          "time": 19.33331399999999,
          "velocity": 0.5905511811023622,
          "duration": 0.6666659999999993
        },
        {
          "name": "C3",
          "midi": 48,
          "time": 19.99997999999999,
          "velocity": 0.5905511811023622,
          "duration": 0.33333299999999966
        },
        {
          "name": "D3",
          "midi": 50,
          "time": 20.33331299999999,
          "velocity": 0.5905511811023622,
          "duration": 0.6666659999999993
        },
        {
          "name": "D3",
          "midi": 50,
          "time": 20.99997899999999,
          "velocity": 0.5905511811023622,
          "duration": 0.33333299999999966
        },
        {
          "name": "A#2",
          "midi": 46,
          "time": 21.33331199999999,
          "velocity": 0.5905511811023622,
          "duration": 0.6666659999999993
        },
        {
          "name": "A#2",
          "midi": 46,
          "time": 21.999977999999988,
          "velocity": 0.5905511811023622,
          "duration": 0.33333299999999966
        },
        {
          "name": "A2",
          "midi": 45,
          "time": 22.333310999999988,
          "velocity": 0.5905511811023622,
          "duration": 0.999998999999999
        },
        {
          "name": "A2",
          "midi": 45,
          "time": 23.333309999999987,
          "velocity": 0.5905511811023622,
          "duration": 0.999998999999999
        },
        {
          "name": "A3",
          "midi": 57,
          "time": 24.333308999999986,
          "velocity": 0.5905511811023622,
          "duration": 0.999998999999999
        },
        {
          "name": "F3",
          "midi": 53,
          "time": 25.333307999999985,
          "velocity": 0.5905511811023622,
          "duration": 0.6666659999999993
        },
        {
          "name": "F3",
          "midi": 53,
          "time": 25.999973999999984,
          "velocity": 0.5905511811023622,
          "duration": 0.33333299999999966
        },
        {
          "name": "C3",
          "midi": 48,
          "time": 26.333306999999984,
          "velocity": 0.5905511811023622,
          "duration": 0.6666659999999993
        },
        {
          "name": "C3",
          "midi": 48,
          "time": 26.999972999999983,
          "velocity": 0.5905511811023622,
          "duration": 0.33333299999999966
        },
        {
          "name": "C3",
          "midi": 48,
          "time": 27.333305999999983,
          "velocity": 0.5905511811023622,
          "duration": 0.6666659999999993
        },
        {
          "name": "C3",
          "midi": 48,
          "time": 27.999971999999982,
          "velocity": 0.5905511811023622,
          "duration": 0.33333299999999966
        },
        {
          "name": "D3",
          "midi": 50,
          "time": 28.33330499999998,
          "velocity": 0.5905511811023622,
          "duration": 0.6666659999999993
        },
        {
          "name": "G2",
          "midi": 43,
          "time": 28.99997099999998,
          "velocity": 0.5905511811023622,
          "duration": 0.33333299999999966
        },
        {
          "name": "A2",
          "midi": 45,
          "time": 29.33330399999998,
          "velocity": 0.5905511811023622,
          "duration": 0.6666659999999993
        },
        {
          "name": "A2",
          "midi": 45,
          "time": 29.99996999999998,
          "velocity": 0.5905511811023622,
          "duration": 0.33333299999999966
        },
        {
          "name": "D3",
          "midi": 50,
          "time": 30.33330299999998,
          "velocity": 0.5905511811023622,
          "duration": 0.999998999999999
        },
        {
          "name": "D3",
          "midi": 50,
          "time": 31.33330199999998,
          "velocity": 0.5905511811023622,
          "duration": 0.6666659999999993
        },
        {
          "name": "D3",
          "midi": 50,
          "time": 31.999967999999978,
          "velocity": 0.5905511811023622,
          "duration": 0.33333299999999966
        },
        {
          "name": "D3",
          "midi": 50,
          "time": 32.33330099999998,
          "velocity": 0.5905511811023622,
          "duration": 0.6666659999999993
        },
        {
          "name": "E3",
          "midi": 52,
          "time": 32.99996699999998,
          "velocity": 0.5905511811023622,
          "duration": 0.3333330000000032
        },
        {
          "name": "F3",
          "midi": 53,
          "time": 33.33329999999998,
          "velocity": 0.5905511811023622,
          "duration": 0.6666659999999993
        },
        {
          "name": "F3",
          "midi": 53,
          "time": 33.99996599999998,
          "velocity": 0.5905511811023622,
          "duration": 0.3333330000000032
        },
        {
          "name": "C3",
          "midi": 48,
          "time": 34.33329899999998,
          "velocity": 0.5905511811023622,
          "duration": 0.6666659999999993
        },
        {
          "name": "C3",
          "midi": 48,
          "time": 34.99996499999998,
          "velocity": 0.5905511811023622,
          "duration": 0.3333330000000032
        },
        {
          "name": "C3",
          "midi": 48,
          "time": 35.333297999999985,
          "velocity": 0.5905511811023622,
          "duration": 0.6666659999999993
        },
        {
          "name": "C3",
          "midi": 48,
          "time": 35.999963999999984,
          "velocity": 0.5905511811023622,
          "duration": 0.3333330000000032
        },
        {
          "name": "D3",
          "midi": 50,
          "time": 36.33329699999999,
          "velocity": 0.5905511811023622,
          "duration": 0.6666659999999993
        },
        {
          "name": "D3",
          "midi": 50,
          "time": 36.99996299999999,
          "velocity": 0.5905511811023622,
          "duration": 0.3333330000000032
        },
        {
          "name": "A#2",
          "midi": 46,
          "time": 37.33329599999999,
          "velocity": 0.5905511811023622,
          "duration": 0.6666659999999993
        },
        {
          "name": "A#2",
          "midi": 46,
          "time": 37.99996199999999,
          "velocity": 0.5905511811023622,
          "duration": 0.3333330000000032
        },
        {
          "name": "A2",
          "midi": 45,
          "time": 38.33329499999999,
          "velocity": 0.5905511811023622,
          "duration": 0.9999990000000025
        },
        {
          "name": "A2",
          "midi": 45,
          "time": 39.333293999999995,
          "velocity": 0.5905511811023622,
          "duration": 0.6666659999999993
        },
        {
          "name": "D3",
          "midi": 50,
          "time": 39.999959999999994,
          "velocity": 0.5905511811023622,
          "duration": 0.3333330000000032
        },
        {
          "name": "D3",
          "midi": 50,
          "time": 40.333293,
          "velocity": 0.5905511811023622,
          "duration": 0.6666659999999993
        },
        {
          "name": "E3",
          "midi": 52,
          "time": 40.999959,
          "velocity": 0.5905511811023622,
          "duration": 0.3333330000000032
        },
        {
          "name": "F3",
          "midi": 53,
          "time": 41.333292,
          "velocity": 0.5905511811023622,
          "duration": 0.6666659999999993
        },
        {
          "name": "F3",
          "midi": 53,
          "time": 41.999958,
          "velocity": 0.5905511811023622,
          "duration": 0.3333330000000032
        },
        {
          "name": "C3",
          "midi": 48,
          "time": 42.333291,
          "velocity": 0.5905511811023622,
          "duration": 0.6666659999999993
        },
        {
          "name": "C3",
          "midi": 48,
          "time": 42.999957,
          "velocity": 0.5905511811023622,
          "duration": 0.3333330000000032
        },
        {
          "name": "C3",
          "midi": 48,
          "time": 43.333290000000005,
          "velocity": 0.5905511811023622,
          "duration": 0.6666659999999993
        },
        {
          "name": "C3",
          "midi": 48,
          "time": 43.999956000000005,
          "velocity": 0.5905511811023622,
          "duration": 0.3333330000000032
        },
        {
          "name": "D3",
          "midi": 50,
          "time": 44.33328900000001,
          "velocity": 0.5905511811023622,
          "duration": 0.6666659999999993
        },
        {
          "name": "G2",
          "midi": 43,
          "time": 44.99995500000001,
          "velocity": 0.5905511811023622,
          "duration": 0.3333330000000032
        },
        {
          "name": "A2",
          "midi": 45,
          "time": 45.33328800000001,
          "velocity": 0.5905511811023622,
          "duration": 0.6666659999999993
        },
        {
          "name": "A2",
          "midi": 45,
          "time": 45.99995400000001,
          "velocity": 0.5905511811023622,
          "duration": 0.3333330000000032
        },
        {
          "name": "D3",
          "midi": 50,
          "time": 46.33328700000001,
          "velocity": 0.5905511811023622,
          "duration": 0.9999990000000025
        },
        {
          "name": "D3",
          "midi": 50,
          "time": 47.333286000000015,
          "velocity": 0.5905511811023622,
          "duration": 0.9999990000000025
        },
        {
          "name": "A3",
          "midi": 57,
          "time": 48.33328500000002,
          "velocity": 0.5905511811023622,
          "duration": 0.9999990000000025
        },
        {
          "name": "F3",
          "midi": 53,
          "time": 49.33328400000002,
          "velocity": 0.5905511811023622,
          "duration": 0.6666659999999993
        },
        {
          "name": "F3",
          "midi": 53,
          "time": 49.99995000000002,
          "velocity": 0.5905511811023622,
          "duration": 0.3333330000000032
        },
        {
          "name": "C3",
          "midi": 48,
          "time": 50.33328300000002,
          "velocity": 0.5905511811023622,
          "duration": 0.6666659999999993
        },
        {
          "name": "C3",
          "midi": 48,
          "time": 50.99994900000002,
          "velocity": 0.5905511811023622,
          "duration": 0.3333330000000032
        },
        {
          "name": "C3",
          "midi": 48,
          "time": 51.333282000000025,
          "velocity": 0.5905511811023622,
          "duration": 0.6666659999999993
        },
        {
          "name": "C3",
          "midi": 48,
          "time": 51.999948000000025,
          "velocity": 0.5905511811023622,
          "duration": 0.3333330000000032
        },
        {
          "name": "D3",
          "midi": 50,
          "time": 52.33328100000003,
          "velocity": 0.5905511811023622,
          "duration": 0.6666659999999993
        },
        {
          "name": "D3",
          "midi": 50,
          "time": 52.99994700000003,
          "velocity": 0.5905511811023622,
          "duration": 0.3333330000000032
        },
        {
          "name": "A#2",
          "midi": 46,
          "time": 53.33328000000003,
          "velocity": 0.5905511811023622,
          "duration": 0.6666659999999993
        },
        {
          "name": "A#2",
          "midi": 46,
          "time": 53.99994600000003,
          "velocity": 0.5905511811023622,
          "duration": 0.3333330000000032
        },
        {
          "name": "A2",
          "midi": 45,
          "time": 54.33327900000003,
          "velocity": 0.5905511811023622,
          "duration": 0.9999990000000025
        },
        {
          "name": "A2",
          "midi": 45,
          "time": 55.333278000000035,
          "velocity": 0.5905511811023622,
          "duration": 0.9999990000000025
        },
        {
          "name": "A3",
          "midi": 57,
          "time": 56.33327700000004,
          "velocity": 0.5905511811023622,
          "duration": 0.9999990000000025
        },
        {
          "name": "F3",
          "midi": 53,
          "time": 57.33327600000004,
          "velocity": 0.5905511811023622,
          "duration": 0.6666659999999993
        },
        {
          "name": "F3",
          "midi": 53,
          "time": 57.99994200000004,
          "velocity": 0.5905511811023622,
          "duration": 0.3333330000000032
        },
        {
          "name": "C3",
          "midi": 48,
          "time": 58.33327500000004,
          "velocity": 0.5905511811023622,
          "duration": 0.6666659999999993
        },
        {
          "name": "C3",
          "midi": 48,
          "time": 58.99994100000004,
          "velocity": 0.5905511811023622,
          "duration": 0.3333330000000032
        },
        {
          "name": "C3",
          "midi": 48,
          "time": 59.333274000000046,
          "velocity": 0.5905511811023622,
          "duration": 0.6666659999999993
        },
        {
          "name": "C3",
          "midi": 48,
          "time": 59.999940000000045,
          "velocity": 0.5905511811023622,
          "duration": 0.3333330000000032
        },
        {
          "name": "D3",
          "midi": 50,
          "time": 60.33327300000005,
          "velocity": 0.5905511811023622,
          "duration": 0.6666659999999993
        },
        {
          "name": "G2",
          "midi": 43,
          "time": 60.99993900000005,
          "velocity": 0.5905511811023622,
          "duration": 0.3333330000000032
        },
        {
          "name": "A2",
          "midi": 45,
          "time": 61.33327200000005,
          "velocity": 0.5905511811023622,
          "duration": 0.6666659999999993
        },
        {
          "name": "A2",
          "midi": 45,
          "time": 61.99993800000005,
          "velocity": 0.5905511811023622,
          "duration": 0.3333330000000032
        },
        {
          "name": "D3",
          "midi": 50,
          "time": 62.33327100000005,
          "velocity": 0.5905511811023622,
          "duration": 0.9999990000000025
        },
        {
          "name": "D3",
          "midi": 50,
          "time": 63.333270000000056,
          "velocity": 0.5905511811023622,
          "duration": 1.999998000000005
        }
      ],
      "controlChanges": {
        "7": [
          {
            "number": 7,
            "time": 0,
            "value": 0.905511811023622
          }
        ],
        "10": [
          {
            "number": 10,
            "time": 0,
            "value": 0.5039370078740157
          }
        ]
      },
      "id": 5,
      "name": "Sackbut",
      "instrumentNumber": 58,
      "instrument": "tuba",
      "instrumentFamily": "brass",
      "channelNumber": 3,
      "isPercussion": false
    },
    {
      "startTime": 0,
      "duration": 0,
      "length": 0,
      "notes": [],
      "controlChanges": {
        "7": [
          {
            "number": 7,
            "time": 0,
            "value": 0
          }
        ]
      },
      "id": 6,
      "name": "Greensleeves",
      "instrumentNumber": 0,
      "instrument": "acoustic grand piano",
      "instrumentFamily": "piano",
      "channelNumber": 4,
      "isPercussion": false
    },
    {
      "startTime": 0,
      "duration": 0,
      "length": 0,
      "notes": [],
      "controlChanges": {
        "7": [
          {
            "number": 7,
            "time": 0,
            "value": 0
          }
        ]
      },
      "id": 7,
      "name": "Traditional",
      "instrumentNumber": 0,
      "instrument": "acoustic grand piano",
      "instrumentFamily": "piano",
      "channelNumber": 5,
      "isPercussion": false
    },
    {
      "startTime": 0,
      "duration": 0,
      "length": 0,
      "notes": [],
      "controlChanges": {
        "7": [
          {
            "number": 7,
            "time": 0,
            "value": 0
          }
        ]
      },
      "id": 8,
      "name": "http://www.csupomona.edu/~jcclark/emusic/",
      "instrumentNumber": 0,
      "instrument": "acoustic grand piano",
      "instrumentFamily": "piano",
      "channelNumber": 6,
      "isPercussion": false
    },
    {
      "startTime": 0,
      "duration": 0,
      "length": 0,
      "notes": [],
      "controlChanges": {
        "7": [
          {
            "number": 7,
            "time": 0,
            "value": 0
          }
        ]
      },
      "id": 9,
      "name": " 1999 by Curtis Clark. Free for personal use.",
      "instrumentNumber": 0,
      "instrument": "acoustic grand piano",
      "instrumentFamily": "piano",
      "channelNumber": 7,
      "isPercussion": false
    },
    {
      "startTime": 0,
      "duration": 0,
      "length": 0,
      "notes": [],
      "controlChanges": {
        "7": [
          {
            "number": 7,
            "time": 0,
            "value": 0
          }
        ]
      },
      "id": 10,
      "name": "jcclark@csupomona.edu",
      "instrumentNumber": 0,
      "instrument": "acoustic grand piano",
      "instrumentFamily": "piano",
      "channelNumber": 8,
      "isPercussion": false
    },
    {
      "startTime": 0,
      "duration": 0,
      "length": 0,
      "notes": [],
      "controlChanges": {},
      "id": 11
    }
  ]
}